<?xml version="1.0" encoding="UTF-8"?>
<svg version="1.1" xmlns="http://www.w3.org/2000/svg" width="32" height="32">
<path d="M0 0 C10.56 0 21.12 0 32 0 C32 10.56 32 21.12 32 32 C21.44 32 10.88 32 0 32 C0 21.44 0 10.88 0 0 Z " fill="#427571" transform="translate(0,0)"/>
<path d="M0 0 C0.33 0 0.66 0 1 0 C1 5.61 1 11.22 1 17 C1.99 17 2.98 17 4 17 C4 15.02 4 13.04 4 11 C4.598125 11.804375 5.19625 12.60875 5.8125 13.4375 C7.80947276 16.22327984 7.80947276 16.22327984 11 17 C11 13.7 11 10.4 11 7 C11.33 7 11.66 7 12 7 C12 10.63 12 14.26 12 18 C13.65 18 15.3 18 17 18 C17.66 18.66 18.32 19.32 19 20 C20.32 19.34 21.64 18.68 23 18 C23 16.35 23 14.7 23 13 C23.99 13 24.98 13 26 13 C26 14.32 26 15.64 26 17 C26.99 17 27.98 17 29 17 C29 13.37 29 9.74 29 6 C29.33 6 29.66 6 30 6 C30.08685287 9.29150125 30.14033895 12.5827096 30.1875 15.875 C30.21263672 16.81214844 30.23777344 17.74929687 30.26367188 18.71484375 C30.27333984 19.61074219 30.28300781 20.50664062 30.29296875 21.4296875 C30.3086792 22.25710449 30.32438965 23.08452148 30.34057617 23.93701172 C30.22818604 24.61779785 30.1157959 25.29858398 30 26 C25.32754625 29.11496916 20.49414246 28.32850857 15 28.3125 C13.34097656 28.33666992 13.34097656 28.33666992 11.6484375 28.36132812 C10.58882812 28.36197266 9.52921875 28.36261719 8.4375 28.36328125 C6.98150391 28.36775269 6.98150391 28.36775269 5.49609375 28.37231445 C3 28 3 28 1.1784668 26.83740234 C-0.48943137 24.23690482 -0.33976632 22.31132154 -0.29296875 19.23828125 C-0.28330078 18.12001953 -0.27363281 17.00175781 -0.26367188 15.84960938 C-0.23853516 14.68236328 -0.21339844 13.51511719 -0.1875 12.3125 C-0.17396484 11.13365234 -0.16042969 9.95480469 -0.14648438 8.74023438 C-0.11109326 5.82636589 -0.06171809 2.91341055 0 0 Z " fill="#306864" transform="translate(1,4)"/>
<path d="M0 0 C1.98 0 3.96 0 6 0 C6.33 1.32 6.66 2.64 7 4 C6.34 4 5.68 4 5 4 C5 3.34 5 2.68 5 2 C4.01 2 3.02 2 2 2 C2 2.99 2 3.98 2 5 C2.99 5.33 3.98 5.66 5 6 C4.01 6 3.02 6 2 6 C2 6.99 2 7.98 2 9 C3.32 9 4.64 9 6 9 C6 8.34 6 7.68 6 7 C6.66 7 7.32 7 8 7 C8 4.69 8 2.38 8 0 C8.99 0 9.98 0 11 0 C11 1.32 11 2.64 11 4 C11.99 4 12.98 4 14 4 C14 2.68 14 1.36 14 0 C14.99 0 15.98 0 17 0 C17 3.63 17 7.26 17 11 C16.01 11 15.02 11 14 11 C14 9.68 14 8.36 14 7 C13.01 7 12.02 7 11 7 C11 8.65 11 10.3 11 12 C10.01 12.495 10.01 12.495 9 13 C11.31 13.33 13.62 13.66 16 14 C16 14.33 16 14.66 16 15 C7.42 15 -1.16 15 -10 15 C-10 14.67 -10 14.34 -10 14 C-5.05 13.67 -0.1 13.34 5 13 C3.35 12.67 1.7 12.34 0 12 C0 8.04 0 4.08 0 0 Z " fill="#4D857E" transform="translate(13,10)"/>
<path d="M0 0 C0.66 0 1.32 0 2 0 C2 1.32 2 2.64 2 4 C2.99 4 3.98 4 5 4 C5 2.68 5 1.36 5 0 C5.99 0 6.98 0 8 0 C8 3.63 8 7.26 8 11 C7.01 11 6.02 11 5 11 C5 9.68 5 8.36 5 7 C4.01 7 3.02 7 2 7 C2 8.32 2 9.64 2 11 C1.34 11 0.68 11 0 11 C0 7.37 0 3.74 0 0 Z " fill="#CCD9D9" transform="translate(22,10)"/>
<path d="M0 0 C3 1 3 1 5 4 C5.33 2.68 5.66 1.36 6 0 C6.66 0 7.32 0 8 0 C8 3.63 8 7.26 8 11 C5 10 5 10 3 7 C2.67 8.32 2.34 9.64 2 11 C1.34 11 0.68 11 0 11 C0 7.37 0 3.74 0 0 Z " fill="#E0E7E7" transform="translate(3,10)"/>
<path d="M0 0 C1.98 0 3.96 0 6 0 C6.33 1.32 6.66 2.64 7 4 C6.34 4 5.68 4 5 4 C5 3.34 5 2.68 5 2 C4.01 2 3.02 2 2 2 C2 2.99 2 3.98 2 5 C2.99 5.33 3.98 5.66 5 6 C4.01 6 3.02 6 2 6 C2 6.99 2 7.98 2 9 C3.32 9 4.64 9 6 9 C6.33 8.34 6.66 7.68 7 7 C6.67 8.32 6.34 9.64 6 11 C4.02 11 2.04 11 0 11 C0 7.37 0 3.74 0 0 Z " fill="#EFF3F3" transform="translate(13,10)"/>
<path d="M0 0 C1.32 0.33 2.64 0.66 4 1 C3.34 1.66 2.68 2.32 2 3 C1.68842542 5.6687973 1.68842542 5.6687973 1.734375 8.77734375 C1.73179687 9.93041016 1.72921875 11.08347656 1.7265625 12.27148438 C1.73429688 13.48126953 1.74203125 14.69105469 1.75 15.9375 C1.74226562 17.14341797 1.73453125 18.34933594 1.7265625 19.59179688 C1.72914063 20.74615234 1.73171875 21.90050781 1.734375 23.08984375 C1.73663086 24.15066162 1.73888672 25.21147949 1.74121094 26.30444336 C1.80707811 29.22264961 1.80707811 29.22264961 4 32 C2.68 32 1.36 32 0 32 C0 21.44 0 10.88 0 0 Z " fill="#A1B9B8" transform="translate(0,0)"/>
<path d="M0 0 C0.928125 1.175625 0.928125 1.175625 1.875 2.375 C3.89858661 4.96837647 3.89858661 4.96837647 6 7 C3.125 7.625 3.125 7.625 0 8 C-0.66 7.34 -1.32 6.68 -2 6 C-1.34 6 -0.68 6 0 6 C0 4.02 0 2.04 0 0 Z " fill="#3B706C" transform="translate(5,15)"/>
<path d="M0 0 C0.99 0 1.98 0 3 0 C4.0625 2.375 4.0625 2.375 5 5 C4.67 5.66 4.34 6.32 4 7 C2.68 7 1.36 7 0 7 C0 4.69 0 2.38 0 0 Z " fill="#739896" transform="translate(15,12)"/>
<path d="M0 0 C0.33 0 0.66 0 1 0 C1 3.63 1 7.26 1 11 C0.01 10.67 -0.98 10.34 -2 10 C-2 9.01 -2 8.02 -2 7 C-1.34 7 -0.68 7 0 7 C0 4.69 0 2.38 0 0 Z " fill="#FBFCFC" transform="translate(10,10)"/>
</svg>
